<svg width="18" height="18" viewBox="0 0 18 18" xmlns="http://www.w3.org/2000/svg">
    <g fill="none" fill-rule="evenodd">
        <path d="M0 0h18v18H0z"/>
        <path d="M17.438 4.781a4.22 4.22 0 0 0-4.22-4.219H4.782A4.22 4.22 0 0 0 .563 4.781v8.438a4.22 4.22 0 0 0 4.218 4.218h8.438a4.22 4.22 0 0 0 4.219-4.218V4.78z" fill="#EA9721"/>
        <path d="M12.977 5.818a.563.563 0 0 0-.795-.795l-7.16 7.16a.563.563 0 0 0 .796.795l7.16-7.16z" fill="#FFF"/>
        <path d="M12.977 12.182a.563.563 0 0 1-.795.795l-7.16-7.16a.563.563 0 0 1 .796-.795l7.16 7.16z" fill="#FFF"/>
    </g>
</svg>
