<svg width="17" height="20" viewBox="0 0 17 20" xmlns="http://www.w3.org/2000/svg">
    <path d="m8.283 0 .21.007a3.766 3.766 0 0 1 3.155 2.075l.853 1.707h3.358a.7.7 0 0 1 .695.619l.006.1c0 .368-.314.682-.7.682l-1.197-.001V13.8c-.012 1.584-.068 2.102-.273 2.656l-.069.174a4.488 4.488 0 0 1-2.427 2.428l-.162.064c-.64.239-1.225.278-3.452.278l-.985-.004c-1.583-.016-2.023-.087-2.627-.338a4.49 4.49 0 0 1-2.432-2.43l-.063-.162c-.239-.638-.278-1.224-.278-3.45V5.189H.7a.7.7 0 0 1-.695-.617L0 4.472c0-.369.314-.682.7-.682l3.358-.001.854-1.707A3.766 3.766 0 0 1 8.077.006L8.283 0zm4.98 13.743V5.189H3.295l.005 8.757c.012 1.21.056 1.654.184 2.024l.045.12a3.093 3.093 0 0 0 1.676 1.676l.122.046c.412.145.927.183 2.462.188h1.207c1.507-.01 1.94-.06 2.362-.235a3.09 3.09 0 0 0 1.672-1.673l.045-.118.045-.147c.103-.381.136-.896.143-2.084zM6.384 8.527a.7.7 0 0 1 .7.7v4.737a.7.7 0 0 1-1.4 0V9.227a.7.7 0 0 1 .7-.7zm3.79 0a.7.7 0 0 1 .7.7v4.737a.7.7 0 0 1-1.4 0V9.227a.7.7 0 0 1 .7-.7zM8.47 1.409 8.292 1.4H8.28c-.896 0-1.715.506-2.116 1.307L5.623 3.79h5.313l-.54-1.08a2.366 2.366 0 0 0-1.926-1.3z" fill="#EC453D" fill-rule="nonzero"/>
</svg>
