<svg width="19" height="16" viewBox="0 0 19 16" xmlns="http://www.w3.org/2000/svg">
    <g fill="#248ED1" fill-rule="nonzero">
        <path d="M16.478 14.868H1.547a.964.964 0 0 1-.147-.01c.05.008.1.013.15.02a1.054 1.054 0 0 1-.243-.065l.136.056a.99.99 0 0 1-.153-.08c-.106-.07.055.05.025.022-.021-.02-.044-.038-.065-.059-.017-.017-.034-.035-.05-.054-.063-.068.09.13.015.015a.99.99 0 0 1-.082-.153l.057.136a1.013 1.013 0 0 1-.066-.244c.008.051.013.1.02.151-.018-.147-.009-.302-.009-.45V1.55c0-.05.004-.097.01-.146l-.021.151c.013-.085.034-.166.066-.243l-.057.136a.99.99 0 0 1 .082-.153c.07-.106-.051.055-.023.024.02-.02.038-.043.058-.064.017-.017.036-.034.055-.05.068-.063-.13.09-.015.014a.99.99 0 0 1 .153-.08l-.136.056c.08-.032.16-.055.244-.066l-.151.02c.184-.022.379-.009.566-.009h3.74c.223 0 .457-.019.678.008l-.151-.021c.068.011.13.028.194.053l-.136-.057c.045.019.085.044.127.066.094.051-.1-.094-.023-.019.017.017.036.032.053.05a4.026 4.026 0 0 1 .119.136l.353.405.992 1.144c.129.147.255.294.383.441.15.174.26.312.534.321.138.004.278 0 .416 0h5.544c.557 0 1.114-.002 1.669 0 .049 0 .098.004.147.01l-.151-.021c.085.013.166.034.243.066l-.136-.057a.99.99 0 0 1 .153.081c.106.07-.055-.05-.024-.022.02.02.043.037.064.058.017.017.034.036.05.055.063.068-.09-.13-.014-.015.032.049.058.1.08.153l-.056-.136c.032.079.055.16.066.243l-.02-.15c.015.126.009.256.009.384v8.91c0 .413.004.826 0 1.24 0 .047-.004.094-.01.141l.021-.15a1.054 1.054 0 0 1-.066.243l.057-.136a1.185 1.185 0 0 1-.081.153c-.07.105.05-.055.022-.025-.02.02-.037.043-.058.064l-.055.051c-.068.062.13-.09.015-.015a.99.99 0 0 1-.153.081l.136-.056c-.08.032-.16.054-.243.066l.15-.021a1.298 1.298 0 0 1-.126.006c-.296.003-.58.256-.566.566.013.304.25.57.566.566a1.542 1.542 0 0 0 1.53-1.536c.003-.106 0-.21 0-.315V4.73c0-.505.057-1.056-.24-1.498a1.578 1.578 0 0 0-1.21-.702c-.051-.004-.102-.004-.153-.004H8.833c.134.055.266.112.4.166L7.925 1.185l-.61-.704c-.286-.33-.688-.48-1.118-.48h-4.37c-.278 0-.556-.01-.818.095a1.573 1.573 0 0 0-.93.967 1.524 1.524 0 0 0-.074.487c-.002.303 0 .61 0 .913v11.436c0 .355-.038.761.096 1.093.18.444.504.763.955.927.157.056.33.077.496.077h14.926c.297 0 .58-.26.566-.566a.575.575 0 0 0-.566-.562z"/>
        <path d="M16.478 14.868H1.547a.964.964 0 0 1-.147-.01c.05.008.1.013.15.02a1.054 1.054 0 0 1-.243-.065l.136.056a.99.99 0 0 1-.153-.08c-.106-.07.055.05.025.022-.021-.02-.044-.038-.065-.059-.017-.017-.034-.035-.05-.054-.063-.068.09.13.015.015a.99.99 0 0 1-.082-.153l.057.136a1.013 1.013 0 0 1-.066-.244c.008.051.013.1.02.151-.014-.126-.009-.256-.009-.385v-8.91c0-.412-.003-.826 0-1.239 0-.047.004-.094.01-.142l-.021.151c.013-.084.034-.166.066-.243l-.057.136a.99.99 0 0 1 .082-.153c.07-.106-.051.055-.023.025l.058-.065a1.45 1.45 0 0 1 .055-.05c.068-.063-.13.09-.015.015a.99.99 0 0 1 .153-.082l-.136.057c.08-.032.16-.055.244-.066-.051.008-.1.013-.151.02.166-.02.337-.009.503-.009H16.46c.05 0 .099.002.148.01l-.151-.021c.085.013.166.034.243.066l-.136-.057a.99.99 0 0 1 .153.082c.106.07-.055-.051-.024-.023.02.02.043.038.064.058.017.017.034.036.05.055.063.068-.09-.13-.014-.015.032.05.058.1.08.153l-.056-.136c.032.08.055.16.066.243l-.02-.15c.014.126.009.256.009.384v8.91c0 .413.004.827 0 1.24 0 .047-.004.094-.01.141l.021-.15a1.054 1.054 0 0 1-.066.243l.057-.136a1.185 1.185 0 0 1-.081.153c-.07.106.05-.055.022-.025-.02.021-.038.044-.058.064l-.055.051c-.068.063.13-.09.015-.015a.99.99 0 0 1-.153.081l.136-.056c-.08.032-.16.055-.243.066.05-.008.1-.013.15-.02a.696.696 0 0 1-.128.009c-.296.003-.58.256-.566.566.013.304.25.57.566.566a1.559 1.559 0 0 0 1.457-1.063c.059-.17.074-.354.074-.534V4.058a1.546 1.546 0 0 0-.229-.804 1.6 1.6 0 0 0-.775-.63c-.246-.1-.504-.097-.763-.097H1.611c-.043 0-.089 0-.132.002A1.559 1.559 0 0 0 .063 3.643c-.073.252-.058.522-.058.783v9.581c0 .155-.002.31 0 .464.004.295.085.602.257.846.2.285.458.481.783.602.17.064.355.081.536.081h14.901c.296 0 .58-.26.566-.566-.017-.306-.25-.566-.57-.566z"/>
    </g>
</svg>
