<svg width="18" height="18" viewBox="0 0 18 18" xmlns="http://www.w3.org/2000/svg">
    <g fill="#000" fill-rule="nonzero">
        <path d="M15.462 4.615h-1.154v-3C14.308.73 13.578 0 12.692 0H5.308c-.886 0-1.616.73-1.616 1.615v3H2.538A2.537 2.537 0 0 0 0 7.154v4.615a2.537 2.537 0 0 0 2.538 2.539h1.154v2.077c0 .886.73 1.615 1.616 1.615h7.384c.886 0 1.616-.73 1.616-1.615v-2.077h1.154A2.537 2.537 0 0 0 18 11.769V7.154a2.537 2.537 0 0 0-2.538-2.539zm-10.385-3c0-.129.101-.23.23-.23h7.385c.13 0 .231.101.231.23v3H5.077v-3zm7.846 14.77c0 .129-.101.23-.23.23H5.307a.229.229 0 0 1-.231-.23v-4.847h7.846v4.847zm3.692-4.616c0 .637-.517 1.154-1.153 1.154h-1.154v-2.077a.697.697 0 0 0-.693-.692h-9.23a.697.697 0 0 0-.693.692v2.077H2.538a1.154 1.154 0 0 1-1.153-1.154V7.154C1.385 6.517 1.902 6 2.538 6h12.924c.636 0 1.153.517 1.153 1.154v4.615z"/>
        <path d="M13.615 7.385h-.923a.697.697 0 0 0-.692.692c0 .378.314.692.692.692h.923a.697.697 0 0 0 .693-.692.697.697 0 0 0-.693-.692z"/>
    </g>
</svg>
